<svg xmlns="http://www.w3.org/2000/svg" width="1200" height="760" viewBox="0 0 1200 760">
  <defs>
    <linearGradient id="bg" x1="0" y1="0" x2="1" y2="1">
      <stop offset="0%" stop-color="#eef8f6" />
      <stop offset="100%" stop-color="#d9f0ea" />
    </linearGradient>
    <filter id="shadow" x="-20%" y="-20%" width="140%" height="140%">
      <feDropShadow dx="0" dy="10" stdDeviation="10" flood-color="#1b5f56" flood-opacity="0.2" />
    </filter>
  </defs>
  <rect width="1200" height="760" fill="url(#bg)" />
  <g transform="translate(130 70)" filter="url(#shadow)">
    <rect width="940" height="620" rx="18" fill="#ffffff" />
    <rect x="55" y="48" width="420" height="24" rx="6" fill="#0f766e" />
    <rect x="55" y="92" width="318" height="13" rx="6" fill="#6b8f89" />
    <rect x="55" y="130" width="832" height="10" rx="5" fill="#d0e6e1" />
    <rect x="55" y="154" width="812" height="10" rx="5" fill="#d0e6e1" />
    <rect x="55" y="178" width="840" height="10" rx="5" fill="#d0e6e1" />
    <rect x="55" y="220" width="250" height="13" rx="6" fill="#0f766e" />
    <rect x="55" y="248" width="820" height="10" rx="5" fill="#d0e6e1" />
    <rect x="55" y="272" width="806" height="10" rx="5" fill="#d0e6e1" />
    <rect x="55" y="296" width="772" height="10" rx="5" fill="#d0e6e1" />
    <rect x="55" y="338" width="260" height="13" rx="6" fill="#0f766e" />
    <rect x="55" y="366" width="800" height="10" rx="5" fill="#d0e6e1" />
    <rect x="55" y="390" width="834" height="10" rx="5" fill="#d0e6e1" />
    <rect x="55" y="414" width="780" height="10" rx="5" fill="#d0e6e1" />
    <rect x="55" y="468" width="320" height="58" rx="12" fill="#e7f6f2" stroke="#b9e1d7" />
    <text x="76" y="503" font-family="Arial, sans-serif" font-size="24" fill="#0f766e">ПОСЛЕ ПЕРЕВОДА</text>
  </g>
</svg>
