<svg xmlns="http://www.w3.org/2000/svg" width="1200" height="760" viewBox="0 0 1200 760">
  <defs>
    <linearGradient id="bg" x1="0" y1="0" x2="1" y2="1">
      <stop offset="0%" stop-color="#f4f6f7" />
      <stop offset="100%" stop-color="#dfe7ea" />
    </linearGradient>
    <filter id="shadow" x="-20%" y="-20%" width="140%" height="140%">
      <feDropShadow dx="0" dy="10" stdDeviation="10" flood-color="#2a3d4a" flood-opacity="0.22" />
    </filter>
  </defs>
  <rect width="1200" height="760" fill="url(#bg)" />
  <g transform="translate(130 70)" filter="url(#shadow)">
    <rect width="940" height="620" rx="18" fill="#ffffff" />
    <rect x="55" y="48" width="430" height="24" rx="6" fill="#263844" />
    <rect x="55" y="92" width="258" height="13" rx="6" fill="#92a1ac" />
    <rect x="55" y="130" width="832" height="10" rx="5" fill="#d5dde2" />
    <rect x="55" y="154" width="812" height="10" rx="5" fill="#d5dde2" />
    <rect x="55" y="178" width="840" height="10" rx="5" fill="#d5dde2" />
    <rect x="55" y="220" width="190" height="13" rx="6" fill="#2d4959" />
    <rect x="55" y="248" width="820" height="10" rx="5" fill="#d5dde2" />
    <rect x="55" y="272" width="806" height="10" rx="5" fill="#d5dde2" />
    <rect x="55" y="296" width="772" height="10" rx="5" fill="#d5dde2" />
    <rect x="55" y="338" width="190" height="13" rx="6" fill="#2d4959" />
    <rect x="55" y="366" width="800" height="10" rx="5" fill="#d5dde2" />
    <rect x="55" y="390" width="834" height="10" rx="5" fill="#d5dde2" />
    <rect x="55" y="414" width="780" height="10" rx="5" fill="#d5dde2" />
    <rect x="55" y="468" width="290" height="58" rx="12" fill="#edf2f5" stroke="#d7e0e5" />
    <text x="76" y="503" font-family="Arial, sans-serif" font-size="24" fill="#334a58">ДО ПЕРЕВОДА</text>
  </g>
</svg>
